<svg aria-hidden="true" style="position: absolute; width: 0; height: 0; overflow: hidden;" version="1.1" xmlns="http://www.w3.org/2000/svg" xmlns:xlink="http://www.w3.org/1999/xlink">
<defs>
<symbol id="icon-close" viewBox="0 0 32 32">
<path fill="none" stroke="#fff" style="stroke: var(--color1, #fff)" stroke-linejoin="round" stroke-linecap="round" stroke-miterlimit="4" stroke-width="1.7813" d="M11.6 11.6l8.8 8.8M11.6 20.4l8.8-8.8"></path>
</symbol>
<symbol id="icon-hashtag" viewBox="0 0 32 32">
<path fill="#fff" style="fill: var(--color1, #fff)" d="M16.946 32l4.86-29.62h4.050l-4.86 29.62h-4.050zM3.597 24.364l0.68-4.050h22.793l-0.68 4.050h-22.793zM6.533 32l4.86-29.62h4.050l-4.86 29.62h-4.050zM5.318 14.066l0.665-4.050h22.793l-0.665 4.050h-22.793z"></path>
</symbol>
<symbol id="icon-left" viewBox="0 0 32 32">
<path fill="none" stroke="#eaecf0" style="stroke: var(--color2, #eaecf0)" stroke-linejoin="miter" stroke-linecap="round" stroke-miterlimit="4" stroke-width="3" d="M22.5 2l-10.661 12.438c-0.77 0.899-0.77 2.225 0 3.124l10.661 12.438"></path>
</symbol>
<symbol id="icon-minus" viewBox="0 0 32 32">
<path fill="none" stroke="#101828" stroke-linejoin="round" stroke-linecap="round" stroke-miterlimit="4" stroke-width="2.6667" d="M6.667 16h18.667"></path>
</symbol>
<symbol id="icon-asterisk" viewBox="0 0 32 32">
<path fill="#fff" style="fill: var(--color1, #fff)" d="M14.328 29.922l0.523-9.205-7.727 5.068-2.773-4.818 8.25-4.136-8.25-4.136 2.773-4.818 7.727 5.068-0.523-9.205h5.523l-0.5 9.205 7.727-5.068 2.773 4.818-8.273 4.136 8.273 4.136-2.773 4.818-7.727-5.068 0.5 9.205h-5.523z"></path>
</symbol>
<symbol id="icon-plus" viewBox="0 0 32 32">
<path fill="none" stroke="#101828" stroke-linejoin="round" stroke-linecap="round" stroke-miterlimit="4" stroke-width="2.6667" d="M27.314 16h-22.627M16 4.686v22.627"></path>
</symbol>
<symbol id="icon-right" viewBox="0 0 32 32">
<path fill="none" stroke="#eaecf0" style="stroke: var(--color2, #eaecf0)" stroke-linejoin="miter" stroke-linecap="round" stroke-miterlimit="4" stroke-width="3" d="M9.5 30l10.661-12.438c0.77-0.899 0.77-2.225 0-3.124l-10.661-12.438"></path>
</symbol>
<symbol id="icon-thumbs-down" viewBox="0 0 24 28">
<path  fill="#fff" style="fill: var(--color1, #fff)" d="M4 7c0-0.547-0.453-1-1-1s-1 0.453-1 1 0.453 1 1 1 1-0.453 1-1zM22 16c0-0.578-0.438-1.984-1.172-2 0.328-0.375 0.547-1.109 0.547-1.609 0-0.734-0.297-1.359-0.828-1.859 0.187-0.328 0.281-0.703 0.281-1.078 0-0.719-0.359-1.609-1.016-1.969 0.047-0.281 0.078-0.578 0.078-0.875 0-1.828-1.156-2.609-2.891-2.609h-2c-1.844 0-3.625 0.547-5.344 1.141-0.844 0.297-2.281 0.859-3.156 0.859h-0.5v10h0.5c1.234 0 3.094 2.672 3.797 3.578 0.391 0.484 0.766 0.969 1.203 1.422 1.516 1.594 1 3.984 2 5 2.141 0 2.5-1.172 2.5-3 0-1.844-1.5-3.172-1.5-5h5.5c1.047 0 2-0.938 2-2zM24 16.016c0 2.156-1.844 3.984-4 3.984h-2.75c0.469 0.969 0.75 1.906 0.75 3 0 1.031-0.063 1.969-0.547 2.906-0.766 1.516-2.328 2.094-3.953 2.094-0.531 0-1.031-0.219-1.406-0.578-1.563-1.531-1.078-4-2-5.016-0.594-0.625-1.141-1.297-1.672-1.984-0.469-0.609-1.531-2.016-2.141-2.422h-4.281c-1.109 0-2-0.891-2-2v-10c0-1.109 0.891-2 2-2h4.5c0.438 0 1.703-0.469 2.156-0.625 2.25-0.781 4.203-1.375 6.609-1.375h1.75c2.844 0 4.891 1.687 4.875 4.609v0.078c0.609 0.781 0.938 1.781 0.938 2.781 0 0.219-0.016 0.453-0.047 0.672 0.391 0.688 0.594 1.469 0.594 2.25 0 0.359-0.047 0.734-0.141 1.078 0.5 0.75 0.766 1.641 0.766 2.547z"></path>
</symbol>

<symbol id="icon-trash" viewBox="0 0 32 32">
<path fill="none" stroke="#667085" style="stroke: var(--color3, #667085)" stroke-linejoin="round" stroke-linecap="round" stroke-miterlimit="4" stroke-width="1.3333" d="M10 12h1.333M11.333 12h10.667M11.333 12v9.333c0 0.354 0.14 0.693 0.39 0.943s0.589 0.39 0.943 0.39h6.667c0.354 0 0.693-0.14 0.943-0.39s0.39-0.589 0.39-0.943v-9.333h-9.333zM13.333 12v-1.333c0-0.354 0.14-0.693 0.39-0.943s0.589-0.39 0.943-0.39h2.667c0.354 0 0.693 0.14 0.943 0.39s0.39 0.589 0.39 0.943v1.333M14.667 15.333v4M17.333 15.333v4"></path>
</symbol>
</defs>
</svg>
