<svg aria-hidden="true" style="position: absolute; width: 0; height: 0; overflow: hidden;" version="1.1" xmlns="http://www.w3.org/2000/svg" xmlns:xlink="http://www.w3.org/1999/xlink">
<defs>
<symbol id="icon-close" viewBox="0 0 32 32">
<path fill="none" stroke="#fff" style="stroke: var(--color1, #fff)" stroke-linejoin="round" stroke-linecap="round" stroke-miterlimit="4" stroke-width="1.7813" d="M11.6 11.6l8.8 8.8M11.6 20.4l8.8-8.8"></path>
</symbol>
<symbol id="icon-hashtag" viewBox="0 0 32 32">
<path fill="#fff" style="fill: var(--color1, #fff)" d="M16.946 32l4.86-29.62h4.050l-4.86 29.62h-4.050zM3.597 24.364l0.68-4.050h22.793l-0.68 4.050h-22.793zM6.533 32l4.86-29.62h4.050l-4.86 29.62h-4.050zM5.318 14.066l0.665-4.050h22.793l-0.665 4.050h-22.793z"></path>
</symbol>
<symbol id="icon-left" viewBox="0 0 32 32">
<path fill="none" stroke="#eaecf0" style="stroke: var(--color2, #eaecf0)" stroke-linejoin="miter" stroke-linecap="round" stroke-miterlimit="4" stroke-width="3" d="M22.5 2l-10.661 12.438c-0.77 0.899-0.77 2.225 0 3.124l10.661 12.438"></path>
</symbol>
<symbol id="icon-minus" viewBox="0 0 32 32">
<path fill="none" stroke="#101828" stroke-linejoin="round" stroke-linecap="round" stroke-miterlimit="4" stroke-width="2.6667" d="M6.667 16h18.667"></path>
</symbol>
<symbol id="icon-asterisk" viewBox="0 0 32 32">
<path fill="#fff" style="fill: var(--color1, #fff)" d="M14.328 29.922l0.523-9.205-7.727 5.068-2.773-4.818 8.25-4.136-8.25-4.136 2.773-4.818 7.727 5.068-0.523-9.205h5.523l-0.5 9.205 7.727-5.068 2.773 4.818-8.273 4.136 8.273 4.136-2.773 4.818-7.727-5.068 0.5 9.205h-5.523z"></path>
</symbol>
<symbol id="icon-plus" viewBox="0 0 32 32">
<path fill="none" stroke="#101828" stroke-linejoin="round" stroke-linecap="round" stroke-miterlimit="4" stroke-width="2.6667" d="M27.314 16h-22.627M16 4.686v22.627"></path>
</symbol>
<symbol id="icon-right" viewBox="0 0 32 32">
<path fill="none" stroke="#eaecf0" style="stroke: var(--color2, #eaecf0)" stroke-linejoin="miter" stroke-linecap="round" stroke-miterlimit="4" stroke-width="3" d="M9.5 30l10.661-12.438c0.77-0.899 0.77-2.225 0-3.124l-10.661-12.438"></path>
</symbol>
<symbol id="icon-thumbs-down" viewBox="0 0 24 28">
<path  fill="#fff" style="fill: var(--color1, #fff)" d="M4 7c0-0.547-0.453-1-1-1s-1 0.453-1 1 0.453 1 1 1 1-0.453 1-1zM22 16c0-0.578-0.438-1.984-1.172-2 0.328-0.375 0.547-1.109 0.547-1.609 0-0.734-0.297-1.359-0.828-1.859 0.187-0.328 0.281-0.703 0.281-1.078 0-0.719-0.359-1.609-1.016-1.969 0.047-0.281 0.078-0.578 0.078-0.875 0-1.828-1.156-2.609-2.891-2.609h-2c-1.844 0-3.625 0.547-5.344 1.141-0.844 0.297-2.281 0.859-3.156 0.859h-0.5v10h0.5c1.234 0 3.094 2.672 3.797 3.578 0.391 0.484 0.766 0.969 1.203 1.422 1.516 1.594 1 3.984 2 5 2.141 0 2.5-1.172 2.5-3 0-1.844-1.5-3.172-1.5-5h5.5c1.047 0 2-0.938 2-2zM24 16.016c0 2.156-1.844 3.984-4 3.984h-2.75c0.469 0.969 0.75 1.906 0.75 3 0 1.031-0.063 1.969-0.547 2.906-0.766 1.516-2.328 2.094-3.953 2.094-0.531 0-1.031-0.219-1.406-0.578-1.563-1.531-1.078-4-2-5.016-0.594-0.625-1.141-1.297-1.672-1.984-0.469-0.609-1.531-2.016-2.141-2.422h-4.281c-1.109 0-2-0.891-2-2v-10c0-1.109 0.891-2 2-2h4.5c0.438 0 1.703-0.469 2.156-0.625 2.25-0.781 4.203-1.375 6.609-1.375h1.75c2.844 0 4.891 1.687 4.875 4.609v0.078c0.609 0.781 0.938 1.781 0.938 2.781 0 0.219-0.016 0.453-0.047 0.672 0.391 0.688 0.594 1.469 0.594 2.25 0 0.359-0.047 0.734-0.141 1.078 0.5 0.75 0.766 1.641 0.766 2.547z"></path>
</symbol>

<symbol id="icon-trash" viewBox="0 0 32 32">
<path fill="none" stroke="#667085" style="stroke: var(--color3, #667085)" stroke-linejoin="round" stroke-linecap="round" stroke-miterlimit="4" stroke-width="1.3333" d="M10 12h1.333M11.333 12h10.667M11.333 12v9.333c0 0.354 0.14 0.693 0.39 0.943s0.589 0.39 0.943 0.39h6.667c0.354 0 0.693-0.14 0.943-0.39s0.39-0.589 0.39-0.943v-9.333h-9.333zM13.333 12v-1.333c0-0.354 0.14-0.693 0.39-0.943s0.589-0.39 0.943-0.39h2.667c0.354 0 0.693 0.14 0.943 0.39s0.39 0.589 0.39 0.943v1.333M14.667 15.333v4M17.333 15.333v4"></path>
</symbol>
<symbol id="icon-arrow-left-curved" viewBox="0 0 33 32">
<path fill="#fff" style="fill: var(--color1, #fff)" d="M7.802 13.333h14.114c4.418 0 8 3.582 8 8s-3.582 8-8 8h-3.333v-2.667h3.333c2.945 0 5.333-2.388 5.333-5.333s-2.388-5.333-5.333-5.333h-14.114l5.724 5.724-1.886 1.886-8.943-8.943 8.943-8.943 1.886 1.886-5.724 5.724z"></path>
</symbol>
<symbol id="icon-maximize" viewBox="0 0 33 32">
<path fill="#fff" style="fill: var(--color1, #fff)" d="M5.917 5.333v10.667h-2.667v-13.333h13.333v2.667h-10.667zM21.526 12.943l5.724-5.724v4.781h2.667v-9.333h-9.333v2.667h4.781l-5.724 5.724 1.886 1.886zM27.25 16v10.667h-10.667v2.667h13.333v-13.333h-2.667zM12.583 29.333v-2.667h-4.781l5.724-5.724-1.886-1.886-5.724 5.724v-4.781h-2.667v9.333h9.333z"></path>
</symbol>
<symbol id="icon-printer" viewBox="0 0 33 32">
<path fill="#fff" style="fill: var(--color1, #fff)" d="M5.917 9.333h2.667v-6.667h16v6.667h2.667c1.473 0 2.667 1.194 2.667 2.667v10.667c0 1.473-1.194 2.667-2.667 2.667h-2.667v4h-16v-4h-2.667c-1.473 0-2.667-1.194-2.667-2.667v-10.667c0-1.473 1.194-2.667 2.667-2.667zM21.917 9.333h-10.667v-4h10.667v4zM27.25 12v10.667h-2.667v-2.667h-16v2.667h-2.667v-10.667h21.333zM21.917 22.667h-10.667v4h10.667v-4zM25.917 14.667c0-0.736-0.597-1.333-1.333-1.333s-1.333 0.597-1.333 1.333c0 0.736 0.597 1.333 1.333 1.333s1.333-0.597 1.333-1.333z"></path>
</symbol>
<symbol id="icon-trash-1" viewBox="0 0 33 32">
<path fill="#fff" style="fill: var(--color1, #fff)" d="M12.583 1.333c-1.473 0-2.667 1.194-2.667 2.667v1.333h-4c-1.473 0-2.667 1.194-2.667 2.667v2.667c0 1.473 1.194 2.667 2.667 2.667h0.106l1.231 14.777c-0.005 1.362 1.189 2.556 2.662 2.556h13.333c1.473 0 2.667-1.194 2.667-2.667l1.227-14.667h0.107c1.473 0 2.667-1.194 2.667-2.667v-2.667c0-1.473-1.194-2.667-2.667-2.667h-4v-1.333c0-1.473-1.194-2.667-2.667-2.667h-8zM5.917 8h21.333v2.667h-21.333v-2.667zM8.699 13.333h15.769l-1.213 14.556-0.005 0.111h-13.333l-1.218-14.667zM20.583 4v1.333h-8v-1.333h8z"></path>
</symbol>
<symbol id="icon-burger" viewBox="0 0 32 32">
<path fill="none" stroke="#516c72" style="stroke: var(--color4, #516c72)" stroke-linejoin="miter" stroke-linecap="round" stroke-miterlimit="4" stroke-width="1.8286" d="M23.619 21.334h0.144c0.636 0 1.151 0.515 1.151 1.151 0 2.225-1.804 4.030-4.030 4.030h-10.074c-2.226 0-4.030-1.804-4.030-4.030 0-0.636 0.515-1.151 1.151-1.151h7.915M12.825 5.791h6.044c3.338 0 6.045 2.706 6.045 6.044 0 0.954-0.773 1.727-1.727 1.727h-14.679c-0.954 0-1.727-0.773-1.727-1.727 0-3.338 2.706-6.044 6.044-6.044zM6.781 16.152h18.133c0.715 0 1.295 0.58 1.295 1.295s-0.58 1.295-1.295 1.295h-1.051c-1.091 0-2.038 0.752-2.285 1.815l-0.422 1.816c-0.31 1.336-2.213 1.336-2.523 0l-0.378-1.627c-0.272-1.174-1.318-2.005-2.523-2.005h-8.952c-0.715 0-1.295-0.58-1.295-1.295s0.58-1.295 1.295-1.295z"></path>
</symbol>
<symbol id="icon-drink" viewBox="0 0 37 32">
<path fill="none" stroke="#516c72" style="stroke: var(--color4, #516c72)" stroke-linejoin="miter" stroke-linecap="round" stroke-miterlimit="4" stroke-width="1.9394" d="M10.747 10.99h15.354M10.747 10.99l2.87 15.712c0.115 0.631 0.76 1.096 1.517 1.096h6.578c0.758 0 1.402-0.466 1.517-1.096l2.87-15.712M10.747 10.99c-0.848 0-1.535-0.579-1.535-1.293s0.687-1.293 1.535-1.293h15.354c0.848 0 1.535 0.579 1.535 1.293s-0.687 1.293-1.535 1.293M21.495 17.455l-1.181 6.465M18.424 8.404v-2.245c0-0.583 0.463-1.094 1.131-1.247l7.313-1.68"></path>
</symbol>
<symbol id="icon-printer2" viewBox="0 0 32 32">
<path fill="#3d585e" style="fill: var(--color5, #3d585e)" d="M5.587 9.905h2.54v-6.349h15.238v6.349h2.54c1.403 0 2.54 1.137 2.54 2.54v10.159c0 1.403-1.137 2.54-2.54 2.54h-2.54v3.81h-15.238v-3.81h-2.54c-1.403 0-2.54-1.137-2.54-2.54v-10.159c0-1.403 1.137-2.54 2.54-2.54zM20.825 9.905h-10.159v-3.81h10.159v3.81zM25.905 12.445v10.159h-2.54v-2.54h-15.238v2.54h-2.54v-10.159h20.317zM20.825 22.603h-10.159v3.81h10.159v-3.81zM24.635 14.984c0-0.701-0.569-1.27-1.27-1.27s-1.27 0.569-1.27 1.27c0 0.701 0.569 1.27 1.27 1.27s1.27-0.569 1.27-1.27z"></path>
</symbol>
<symbol id="icon-star" viewBox="0 0 32 32">
<path fill="#bac8c1" style="fill: var(--color6, #bac8c1)" d="M15.092 1.969c0.357-0.775 1.459-0.775 1.816 0l3.372 7.31c0.146 0.316 0.445 0.533 0.79 0.574l7.994 0.948c0.847 0.1 1.188 1.148 0.561 1.727l-5.91 5.466c-0.255 0.236-0.37 0.588-0.302 0.929l1.569 7.896c0.166 0.837-0.725 1.484-1.469 1.068l-7.024-3.932c-0.303-0.17-0.673-0.17-0.977 0l-7.024 3.932c-0.745 0.417-1.636-0.231-1.469-1.068l1.569-7.896c0.068-0.341-0.047-0.693-0.302-0.929l-5.91-5.465c-0.627-0.579-0.286-1.627 0.561-1.727l7.994-0.948c0.345-0.041 0.645-0.258 0.79-0.574l3.372-7.31z"></path>
</symbol>
<symbol id="icon-user" viewBox="0 0 32 32">
<path fill="#fff" style="fill: var(--color1, #fff)" d="M16 30.667c-8.1 0-14.667-6.567-14.667-14.667s6.566-14.667 14.667-14.667c8.1 0 14.667 6.566 14.667 14.667s-6.567 14.667-14.667 14.667zM25.866 22.833c1.345-1.939 2.134-4.294 2.134-6.833 0-6.627-5.373-12-12-12s-12 5.373-12 12c0 2.539 0.788 4.894 2.134 6.833 1.501-1.982 5.027-2.833 9.866-2.833s8.365 0.851 9.866 2.833zM23.953 24.986c-0.39-1.403-3.194-2.32-7.953-2.32s-7.563 0.917-7.953 2.32c2.117 1.875 4.902 3.014 7.953 3.014s5.836-1.138 7.953-3.014zM16 20c-2.986 0-5.333-2.097-5.333-6.667 0-2.992 2.105-5.333 5.333-5.333 3.219 0 5.333 2.562 5.333 5.6 0 4.373-2.376 6.4-5.333 6.4zM13.333 13.333c0 3.026 1.091 4 2.667 4 1.57 0 2.667-0.935 2.667-3.733 0-1.666-1.046-2.933-2.667-2.933-1.688 0-2.667 1.088-2.667 2.667z"></path>
</symbol>
</defs>
</svg>
